<svg version="1.1" xmlns="http://www.w3.org/2000/svg" viewBox="-266.2 -1054.7 7853.164028930663 2405.964028930664"><desc>Created with Snap</desc><defs></defs><g><rect x="-266.2" y="-1054.7" width="7853.164028930663" height="2405.964028930664" fill="#421e86" style=""></rect><g transform="matrix(55.9864,0,0,55.9864,5488.2,-747.5)"><g display="none"><rect x="-69.333" y="-18.667" display="inline" fill="#ffffff" width="473.333" height="236" style=""></rect></g><g display="none"><g display="inline"><g><polygon fill="#ffffff" points="32,31.952 0,31.952 0,0.048    " style=""></polygon></g><g><polygon fill="#ffffff" points="23.347,23.325 8.653,23.325 8.653,8.675    " style=""></polygon></g></g><g display="inline"><g><polygon fill="#ffffff" points="0,0.048 32,0.048 32,31.952    " style=""></polygon></g><g><polygon fill="#ffffff" points="8.653,8.675 23.347,8.675 23.347,23.325    " style=""></polygon></g></g></g><g display="none"><g display="inline"><rect x="8.675" y="8.675" fill="#ffffff" stroke="#ffffff" stroke-miterlimit="10" width="14.65" height="14.65" style=""></rect><rect x="0.5" y="0.326" fill="#ffffff" stroke="#ffffff" stroke-miterlimit="10" width="31" height="31.348" style=""></rect><line fill="#ffffff" stroke="#ffffff" stroke-miterlimit="10" x1="0.413" y1="0.413" x2="31.587" y2="31.587" style=""></line></g></g><g display="none"><rect x="0.5" y="0.326" display="inline" fill="#ffffff" stroke="#ffffff" stroke-miterlimit="10" width="31" height="31.348" style=""></rect><rect x="8.675" y="8.675" display="inline" fill="#ffffff" stroke="#ffffff" stroke-miterlimit="10" width="14.65" height="14.65" style=""></rect><line display="inline" fill="#ffffff" stroke="#ffffff" stroke-miterlimit="10" x1="0.413" y1="0.413" x2="31.587" y2="31.587" style=""></line></g><g><g><polygon points="9.382,8.675 23.325,8.675 23.325,22.618 32,31.293 32,0 0.707,0   " fill="#ffffff" style=""></polygon><polygon points="22.618,23.325 8.675,23.325 8.675,9.382 0,0.707 0,32 31.293,32   " fill="#ffffff" style=""></polygon></g></g><desc>Created with Snap</desc><defs></defs></g><g><g transform="matrix(0.5,0,0,-0.5,0,0)"><path d="M768 1409Q741 1409 705 1398Q669 1387 631 1356Q594 1326 558 1271Q522 1216 493 1128Q465 1041 447 916Q430 791 430 621Q430 459 447 340Q465 221 494 137Q524 54 562 1Q600 -52 642 -82Q684 -111 726 -122Q768 -133 805 -133Q844 -133 884 -123Q924 -113 962 -94Q1001 -75 1036 -48Q1072 -21 1102 14L1147 -31Q1117 -68 1075 -107Q1033 -145 977 -177Q922 -208 853 -228Q784 -248 700 -248Q569 -248 456 -198Q344 -148 260 -43Q177 63 129 228Q82 393 82 623Q82 839 132 1002Q182 1165 268 1274Q354 1384 470 1439Q586 1495 717 1495Q804 1495 875 1478Q947 1462 999 1430Q1051 1399 1079 1352Q1108 1306 1108 1247Q1108 1220 1099 1190Q1090 1161 1071 1136Q1053 1112 1026 1096Q999 1081 963 1081Q931 1081 913 1095Q896 1109 887 1132Q879 1155 876 1184Q874 1214 873 1245Q872 1276 868 1305Q865 1335 854 1358Q844 1381 824 1395Q804 1409 768 1409ZM1177 512Q1177 643 1215 741Q1253 840 1316 906Q1380 972 1464 1005Q1548 1038 1640 1038Q1732 1038 1816 1007Q1900 977 1963 914Q2027 851 2065 754Q2103 658 2103 526Q2103 395 2065 294Q2027 193 1963 124Q1900 55 1816 19Q1732 -16 1640 -16Q1548 -16 1464 17Q1380 51 1316 117Q1253 183 1215 282Q1177 381 1177 512ZM1792 522Q1792 602 1786 676Q1781 751 1765 809Q1749 867 1719 901Q1689 936 1640 936Q1591 936 1561 899Q1531 863 1515 803Q1499 744 1494 668Q1489 592 1489 512Q1489 432 1494 355Q1499 279 1515 219Q1531 159 1561 122Q1591 86 1640 86Q1689 86 1719 124Q1749 162 1765 224Q1781 286 1786 364Q1792 442 1792 522ZM2609 827Q2647 885 2690 932Q2708 952 2729 971Q2750 990 2772 1005Q2795 1020 2819 1029Q2843 1038 2867 1038Q2918 1038 2947 1007Q2976 977 2976 922Q2976 888 2970 856Q2965 825 2949 780L2921 780Q2915 811 2893 831Q2871 852 2829 852Q2798 852 2768 840Q2738 829 2709 812Q2681 795 2655 775Q2630 755 2609 737L2609 88Q2609 75 2605 57Q2601 39 2585 23Q2570 7 2539 -5Q2509 -16 2456 -16Q2403 -16 2372 -4Q2342 9 2326 26Q2310 43 2306 61Q2302 79 2302 90L2302 862Q2302 891 2288 912Q2275 934 2243 934Q2226 934 2214 928Q2202 922 2188 911L2167 936Q2190 955 2218 973Q2247 992 2280 1006Q2313 1020 2351 1029Q2389 1038 2431 1038Q2474 1038 2504 1026Q2535 1015 2554 996Q2574 978 2585 955Q2596 932 2601 908Q2607 885 2608 863Q2609 842 2609 827ZM3039 512Q3039 643 3077 741Q3115 840 3178 906Q3242 972 3326 1005Q3410 1038 3502 1038Q3594 1038 3678 1007Q3762 977 3825 914Q3889 851 3927 754Q3965 658 3965 526Q3965 395 3927 294Q3889 193 3825 124Q3762 55 3678 19Q3594 -16 3502 -16Q3410 -16 3326 17Q3242 51 3178 117Q3115 183 3077 282Q3039 381 3039 512ZM3654 522Q3654 602 3648 676Q3643 751 3627 809Q3611 867 3581 901Q3551 936 3502 936Q3453 936 3423 899Q3393 863 3377 803Q3361 744 3356 668Q3351 592 3351 512Q3351 432 3356 355Q3361 279 3377 219Q3393 159 3423 122Q3453 86 3502 86Q3551 86 3581 124Q3611 162 3627 224Q3643 286 3648 364Q3654 442 3654 522ZM4740 498Q4740 624 4728 699Q4717 775 4698 814Q4679 854 4656 866Q4633 879 4609 879Q4580 879 4557 863Q4535 848 4518 828Q4502 808 4490 788Q4479 768 4471 758L4471 90Q4471 77 4467 58Q4463 40 4447 23Q4432 7 4401 -5Q4371 -16 4318 -16Q4265 -16 4234 -4Q4204 9 4188 26Q4172 43 4168 61Q4164 79 4164 90L4164 862Q4164 891 4150 912Q4137 934 4105 934Q4088 934 4076 928Q4064 922 4050 911L4029 936Q4052 955 4080 973Q4109 992 4142 1006Q4175 1020 4213 1029Q4251 1038 4293 1038Q4358 1038 4394 1016Q4430 995 4447 965Q4464 935 4467 902Q4471 870 4471 848Q4508 901 4555 943Q4574 961 4597 978Q4621 995 4647 1008Q4674 1022 4703 1030Q4733 1038 4764 1038Q4832 1038 4884 1012Q4937 986 4973 925Q5009 864 5028 763Q5047 663 5047 514Q5047 369 5021 262Q4995 155 4953 80Q4911 5 4858 -43Q4805 -90 4751 -117Q4697 -144 4647 -155Q4598 -165 4562 -166L4551 -125Q4581 -118 4606 -103Q4632 -88 4653 -59Q4674 -30 4690 14Q4706 59 4717 126Q4729 193 4734 284Q4740 376 4740 498ZM5704 274L5704 518Q5704 543 5688 556Q5672 569 5647 569Q5612 569 5580 553Q5549 537 5525 506Q5501 475 5487 429Q5473 384 5473 324Q5473 266 5481 228Q5490 190 5504 167Q5519 145 5538 136Q5557 127 5578 127Q5604 127 5627 140Q5650 154 5667 175Q5684 196 5694 222Q5704 248 5704 274ZM5545 956Q5511 956 5482 948Q5453 940 5432 928Q5411 916 5399 901Q5387 887 5387 874Q5387 859 5402 852Q5418 846 5437 837Q5456 829 5471 813Q5487 798 5487 766Q5487 745 5478 727Q5470 710 5455 696Q5441 683 5421 675Q5402 668 5381 668Q5325 668 5290 706Q5256 744 5256 807Q5256 868 5288 911Q5320 955 5371 983Q5423 1011 5488 1024Q5553 1038 5618 1038Q5696 1038 5767 1021Q5838 1004 5892 967Q5947 930 5979 873Q6012 816 6012 735L6012 170Q6012 161 6013 150Q6014 139 6018 130Q6022 121 6030 115Q6038 109 6053 109Q6071 109 6086 122Q6102 136 6114 150L6139 129Q6124 108 6103 83Q6082 58 6052 36Q6022 14 5982 -1Q5942 -16 5891 -16Q5828 -16 5779 21Q5730 59 5715 137Q5683 94 5648 65Q5614 36 5578 18Q5542 0 5505 -8Q5469 -16 5432 -16Q5384 -16 5339 -1Q5294 14 5258 46Q5223 79 5201 131Q5180 183 5180 258Q5180 349 5216 407Q5252 465 5310 504Q5369 544 5443 572Q5518 600 5596 631Q5654 654 5680 699Q5707 745 5707 793Q5707 867 5663 911Q5620 956 5545 956ZM6247 850Q6241 890 6227 912Q6214 934 6182 934Q6165 934 6152 928Q6140 922 6126 911L6106 936Q6129 955 6157 973Q6186 992 6219 1006Q6252 1020 6290 1029Q6328 1038 6370 1038Q6430 1038 6467 1017Q6504 997 6525 966Q6547 936 6556 901Q6565 866 6569 838Q6606 535 6652 379Q6698 223 6761 223Q6796 223 6828 261Q6861 299 6885 365Q6910 431 6925 519Q6940 607 6940 707Q6940 773 6931 818Q6922 864 6911 895Q6900 926 6891 946Q6882 967 6882 983Q6882 998 6894 1008Q6906 1018 6922 1025Q6939 1032 6956 1035Q6974 1038 6985 1038Q7014 1038 7027 1030Q7040 1022 7048 999Q7057 970 7060 922Q7064 875 7064 821Q7064 744 7053 652Q7043 560 7021 467Q7000 374 6967 287Q6934 200 6888 132Q6843 65 6785 24Q6728 -16 6657 -16Q6574 -16 6513 32Q6452 80 6409 157Q6367 234 6339 330Q6311 426 6293 522Q6276 619 6265 705Q6255 792 6247 850ZM7570 872L7570 90Q7570 77 7565 58Q7561 40 7544 23Q7528 7 7497 -5Q7466 -16 7413 -16Q7360 -16 7330 -4Q7300 9 7285 26Q7270 43 7266 61Q7263 79 7263 90L7263 862Q7263 891 7249 912Q7236 934 7204 934Q7187 934 7175 928Q7163 922 7149 911L7128 936Q7151 955 7179 973Q7208 992 7241 1006Q7274 1020 7312 1029Q7350 1038 7392 1038Q7457 1038 7493 1020Q7529 1003 7546 977Q7563 952 7566 923Q7570 894 7570 872ZM7232 1266Q7232 1294 7244 1319Q7257 1345 7279 1364Q7302 1383 7331 1394Q7361 1405 7396 1405Q7430 1405 7459 1394Q7489 1383 7511 1364Q7533 1345 7545 1319Q7558 1294 7558 1266Q7558 1237 7545 1212Q7533 1187 7511 1168Q7489 1150 7459 1139Q7430 1128 7396 1128Q7361 1128 7331 1139Q7302 1150 7279 1168Q7257 1187 7244 1212Q7232 1237 7232 1266ZM8141 827Q8179 885 8222 932Q8240 952 8261 971Q8282 990 8304 1005Q8327 1020 8351 1029Q8375 1038 8399 1038Q8450 1038 8479 1007Q8508 977 8508 922Q8508 888 8502 856Q8497 825 8481 780L8453 780Q8447 811 8425 831Q8403 852 8361 852Q8330 852 8300 840Q8270 829 8241 812Q8213 795 8187 775Q8162 755 8141 737L8141 88Q8141 75 8137 57Q8133 39 8117 23Q8102 7 8071 -5Q8041 -16 7988 -16Q7935 -16 7904 -4Q7874 9 7858 26Q7842 43 7838 61Q7834 79 7834 90L7834 862Q7834 891 7820 912Q7807 934 7775 934Q7758 934 7746 928Q7734 922 7720 911L7699 936Q7722 955 7750 973Q7779 992 7812 1006Q7845 1020 7883 1029Q7921 1038 7963 1038Q8006 1038 8036 1026Q8067 1015 8086 996Q8106 978 8117 955Q8128 932 8133 908Q8139 885 8140 863Q8141 842 8141 827ZM9509 893L9509 174Q9509 165 9510 154Q9511 144 9515 134Q9519 125 9527 119Q9535 113 9550 113Q9569 113 9584 126Q9599 140 9612 154L9636 133Q9621 112 9598 86Q9576 61 9544 38Q9512 15 9471 -1Q9430 -16 9378 -16Q9334 -16 9301 -5Q9269 7 9246 26Q9224 46 9213 72Q9202 99 9202 129L9202 174Q9152 120 9097 79Q9073 61 9046 44Q9019 27 8990 13Q8961 0 8930 -8Q8899 -16 8868 -16Q8808 -16 8765 5Q8723 27 8697 62Q8671 97 8659 141Q8647 185 8647 229L8647 848Q8647 857 8646 867Q8645 878 8641 887Q8637 897 8629 903Q8621 909 8606 909Q8588 909 8572 895Q8557 882 8545 868L8520 889Q8535 910 8557 935Q8580 961 8612 984Q8644 1007 8685 1022Q8727 1038 8778 1038Q8822 1038 8855 1026Q8888 1015 8910 995Q8932 976 8943 949Q8954 923 8954 893L8954 225Q8954 211 8958 196Q8963 182 8971 170Q8980 158 8993 150Q9006 143 9024 143Q9053 143 9082 158Q9111 173 9135 193Q9159 214 9176 234Q9194 254 9202 264L9202 848Q9202 857 9201 867Q9200 878 9196 887Q9192 897 9184 903Q9176 909 9161 909Q9143 909 9127 895Q9112 882 9100 868L9075 889Q9090 910 9112 935Q9135 961 9167 984Q9199 1007 9240 1022Q9282 1038 9333 1038Q9377 1038 9410 1026Q9443 1015 9465 995Q9487 976 9498 949Q9509 923 9509 893ZM10093 958Q10070 958 10049 952Q10029 946 10013 932Q9997 919 9988 898Q9979 878 9979 850Q9979 811 10007 772Q10036 734 10078 692Q10121 651 10170 606Q10220 562 10262 512Q10305 463 10333 407Q10362 351 10362 287Q10362 215 10337 159Q10313 103 10267 64Q10222 25 10157 4Q10093 -16 10014 -16Q9945 -16 9889 3Q9833 23 9789 51Q9746 80 9715 112Q9684 144 9667 170L9702 195Q9715 180 9735 162Q9755 145 9779 130Q9804 115 9832 105Q9860 96 9889 96Q9961 96 10007 130Q10053 165 10053 233Q10053 271 10028 311Q10003 352 9965 395Q9927 438 9883 484Q9839 530 9801 579Q9763 628 9738 680Q9713 732 9713 788Q9713 851 9738 898Q9764 945 9806 976Q9849 1007 9903 1022Q9958 1038 10016 1038Q10083 1038 10138 1026Q10193 1014 10232 989Q10272 965 10293 928Q10315 891 10315 842Q10315 804 10290 776Q10265 748 10220 748Q10177 748 10154 766Q10132 785 10132 817Q10132 838 10142 850Q10153 862 10166 869Q10179 877 10189 882Q10200 888 10200 897Q10200 925 10170 941Q10140 958 10093 958Z" fill="#ffffff" style=""></path></g></g><g transform="matrix(0.75,0,0,0.75,3299.4,1033.312)"><g transform="matrix(1.024,0,0,-1.024,0,0)"><path d="M42 688L42 708Q63 707 97 706Q131 705 164 705Q211 705 254 706Q297 707 315 707Q436 707 496 652Q556 597 556 510Q556 474 544 434Q532 395 502 361Q473 328 422 307Q371 286 293 286L197 286L197 306L283 306Q354 306 391 333Q429 360 442 404Q456 448 456 499Q456 594 418 641Q381 688 290 688Q244 688 230 671Q216 654 216 602L216 106Q216 70 223 52Q231 34 253 28Q275 22 317 20L317 0Q291 2 251 2Q211 3 170 3Q131 3 97 2Q63 2 42 0L42 20Q76 22 93 28Q111 34 117 52Q123 70 123 106L123 602Q123 639 117 656Q111 674 93 680Q76 687 42 688ZM748 -7Q683 -7 653 25Q624 58 624 112Q624 154 644 181Q665 209 697 226Q729 244 764 256Q800 269 832 281Q864 293 884 308Q905 323 905 346L905 408Q905 450 892 472Q880 494 859 501Q838 509 812 509Q787 509 758 502Q730 495 713 473Q732 469 746 453Q760 437 760 412Q760 387 744 372Q728 358 703 358Q674 358 660 376Q647 395 647 418Q647 444 660 460Q673 476 693 490Q716 506 752 517Q789 529 835 529Q876 529 905 519Q934 510 953 492Q979 468 987 433Q995 399 995 351L995 73Q995 49 1002 37Q1009 26 1026 26Q1040 26 1050 32Q1061 38 1071 47L1082 30Q1061 14 1042 3Q1023 -7 991 -7Q939 -7 922 20Q905 47 905 82Q873 29 832 11Q792 -7 748 -7ZM792 33Q822 33 851 50Q880 68 905 109L905 305Q890 283 858 270Q827 257 793 241Q760 226 736 199Q712 173 712 124Q712 78 735 55Q758 33 792 33ZM1448 529Q1486 529 1511 519Q1537 509 1554 491Q1573 471 1581 441Q1589 411 1589 360L1589 93Q1589 51 1606 36Q1624 21 1665 21L1665 0Q1648 1 1613 2Q1578 4 1545 4Q1512 4 1480 2Q1449 1 1433 0L1433 21Q1469 21 1484 36Q1499 51 1499 93L1499 382Q1499 413 1494 439Q1489 465 1471 481Q1454 497 1418 497Q1355 497 1316 444Q1278 392 1278 315L1278 93Q1278 51 1293 36Q1308 21 1344 21L1344 0Q1328 1 1296 2Q1265 4 1232 4Q1199 4 1164 2Q1129 1 1112 0L1112 21Q1153 21 1170 36Q1188 51 1188 93L1188 406Q1188 451 1172 472Q1156 494 1112 494L1112 515Q1144 512 1174 512Q1203 512 1229 515Q1256 519 1278 526L1278 408Q1304 476 1350 502Q1397 529 1448 529ZM1952 529Q2040 529 2089 475Q2139 422 2139 309L1786 309L1785 328L2043 328Q2045 377 2035 418Q2025 460 2003 485Q1982 510 1948 510Q1902 510 1866 464Q1831 418 1824 318L1827 314Q1825 299 1824 281Q1823 263 1823 245Q1823 177 1845 128Q1867 79 1902 53Q1938 28 1976 28Q2021 28 2059 50Q2097 72 2123 128L2143 120Q2132 87 2107 56Q2082 25 2044 5Q2006 -14 1956 -14Q1884 -14 1832 19Q1781 52 1753 110Q1726 169 1726 245Q1726 333 1754 396Q1782 460 1833 494Q1884 529 1952 529ZM2374 784L2374 93Q2374 51 2391 36Q2409 21 2450 21L2450 0Q2433 1 2398 2Q2364 4 2329 4Q2295 4 2260 2Q2225 1 2208 0L2208 21Q2249 21 2266 36Q2284 51 2284 93L2284 664Q2284 709 2268 730Q2252 752 2208 752L2208 773Q2240 770 2270 770Q2299 770 2325 773Q2352 777 2374 784Z" fill="#ffffff" style=""></path></g></g></g></svg>