<svg version="1.1" xmlns="http://www.w3.org/2000/svg" viewBox="-2828.861917215983 -1037.2 6736.561917215982 2259.6160369873046"><desc>Created with Snap</desc><defs></defs><g><rect x="-2828.861917215983" y="-1037.2" width="6736.561917215982" height="2259.6160369873046" fill="#421e86" style=""></rect><g transform="matrix(27.4203,0,0,27.4203,-2768.4443,-1278.4053)"><path d="M85.564,80H14.435C11.438,80,9,77.562,9,74.564V25.436C9,22.438,11.438,20,14.435,20h71.129C88.562,20,91,22.438,91,25.436  v49.129C91,77.562,88.562,80,85.564,80z M21.697,26.652c-2.11,0-3.826,1.717-3.826,3.827c0,2.11,1.717,3.826,3.826,3.826  c2.11,0,3.827-1.716,3.827-3.826C25.523,28.369,23.807,26.652,21.697,26.652z M33.697,26.652c-2.11,0-3.826,1.717-3.826,3.827  c0,2.11,1.717,3.826,3.826,3.826c2.11,0,3.827-1.716,3.827-3.826C37.523,28.369,35.807,26.652,33.697,26.652z M45.697,26.652  c-2.11,0-3.826,1.717-3.826,3.827c0,2.11,1.717,3.826,3.826,3.826c2.11,0,3.827-1.716,3.827-3.826  C49.523,28.369,47.807,26.652,45.697,26.652z M28,47v2h46v-2H28z M37,53v2h28v-2H37z" fill="#ffffff" style=""></path><desc>Created with Snap</desc><defs></defs></g><g><g transform="matrix(0.5,0,0,-0.5,0,0)"><path d="M463 852Q501 852 543 865Q585 879 626 902Q668 926 705 958Q743 991 771 1029Q800 1068 817 1110Q834 1153 834 1196Q834 1214 827 1234Q821 1254 806 1271Q792 1288 768 1299Q744 1311 709 1311Q641 1311 579 1279Q518 1247 465 1192Q412 1137 368 1063Q325 990 294 907Q264 824 247 736Q231 648 231 565Q231 470 248 380Q265 291 302 222Q340 153 401 111Q462 70 551 70Q616 70 668 89Q720 108 757 130Q794 153 814 172Q834 192 836 193Q849 215 865 219Q882 223 897 215Q913 207 926 190Q939 174 946 155Q954 136 953 117Q952 98 940 86Q938 84 925 71Q912 58 888 39Q864 20 829 -2Q794 -23 750 -42Q706 -60 652 -72Q599 -84 537 -84Q427 -84 340 -38Q253 8 192 92Q132 177 100 297Q68 417 68 565Q68 665 89 770Q110 875 150 974Q191 1074 249 1162Q307 1251 381 1317Q455 1383 544 1421Q633 1460 735 1460Q790 1460 838 1443Q886 1426 920 1392Q955 1358 975 1307Q995 1257 995 1190Q995 1127 970 1067Q946 1007 905 953Q864 900 809 855Q755 810 694 777Q634 745 572 727Q510 709 453 709Q415 709 388 732Q362 756 362 807Q362 818 363 829Q365 841 368 850Q371 860 375 866Q380 872 385 872Q390 872 394 869Q399 866 406 862Q414 858 427 855Q440 852 463 852ZM1634 -57Q1599 -57 1570 -46Q1542 -35 1520 -16Q1499 4 1485 30Q1471 57 1466 88Q1429 23 1379 -18Q1329 -59 1261 -59Q1210 -59 1169 -38Q1129 -17 1101 21Q1073 60 1058 114Q1044 169 1044 236Q1044 317 1055 399Q1067 481 1081 547Q1097 624 1118 696Q1123 709 1125 722Q1128 736 1137 747Q1146 758 1165 765Q1185 772 1226 772Q1264 772 1275 758Q1286 745 1283 727Q1281 709 1271 690Q1262 671 1259 659Q1245 602 1234 555Q1223 508 1215 460Q1208 413 1204 361Q1200 310 1200 246Q1200 162 1224 119Q1249 76 1294 76Q1325 76 1351 99Q1378 122 1399 160Q1421 199 1437 248Q1453 298 1462 352L1462 682Q1462 704 1458 717Q1455 730 1451 737Q1448 745 1444 749Q1441 754 1441 760Q1441 765 1447 769Q1453 773 1463 776Q1473 779 1484 780Q1496 782 1507 782Q1558 782 1587 755Q1617 729 1617 692L1617 172Q1617 165 1618 149Q1619 134 1624 118Q1629 102 1640 90Q1651 78 1671 78Q1702 78 1724 100Q1747 122 1763 155Q1780 188 1790 226Q1801 265 1808 299Q1814 331 1828 345Q1842 360 1857 360Q1869 360 1882 352Q1895 345 1905 333Q1916 321 1922 306Q1929 291 1929 276Q1929 274 1929 271Q1929 268 1927 262Q1913 211 1890 155Q1868 99 1833 52Q1798 5 1749 -26Q1700 -57 1634 -57ZM2262 -57Q2226 -57 2188 -46Q2151 -35 2120 -8Q2090 19 2070 63Q2051 108 2051 176Q2051 275 2077 385Q2104 496 2154 629L1998 629L1975 629Q1974 599 1971 553Q1969 507 1963 455Q1957 403 1947 350Q1938 297 1924 252Q1914 220 1892 215Q1871 210 1850 222Q1829 235 1816 259Q1803 283 1810 309Q1818 340 1824 384Q1830 429 1833 478Q1837 528 1839 577Q1841 627 1842 666Q1804 687 1779 719Q1754 752 1754 797Q1754 818 1762 835Q1771 853 1785 865Q1799 878 1818 884Q1837 891 1857 891Q1875 891 1894 886Q1914 881 1931 868Q1949 855 1963 834Q1977 813 1986 782Q2011 779 2028 777Q2046 776 2058 775Q2070 774 2078 774Q2086 774 2094 774L2201 774Q2210 774 2227 763Q2245 752 2262 734Q2279 717 2290 697Q2302 677 2299 659Q2299 653 2292 630Q2285 607 2275 572Q2265 537 2253 491Q2241 446 2231 396Q2221 346 2214 292Q2207 239 2207 188Q2207 167 2212 147Q2217 127 2227 111Q2237 96 2252 87Q2268 78 2289 78Q2324 78 2349 100Q2374 122 2391 155Q2408 188 2418 226Q2429 265 2436 299Q2442 331 2456 345Q2470 360 2485 360Q2497 360 2510 352Q2523 345 2533 333Q2544 321 2550 306Q2557 291 2557 276Q2557 271 2556 268Q2555 265 2555 262Q2541 211 2518 155Q2496 99 2461 52Q2426 5 2377 -26Q2328 -57 2262 -57ZM2891 -57Q2855 -57 2817 -46Q2780 -35 2749 -8Q2719 19 2699 63Q2680 108 2680 176Q2680 275 2706 385Q2733 496 2783 629L2627 629L2604 629Q2603 599 2600 553Q2598 507 2592 455Q2586 403 2576 350Q2567 297 2553 252Q2543 220 2521 215Q2500 210 2479 222Q2458 235 2445 259Q2432 283 2439 309Q2447 340 2453 384Q2459 429 2462 478Q2466 528 2468 577Q2470 627 2471 666Q2433 687 2408 719Q2383 752 2383 797Q2383 818 2391 835Q2400 853 2414 865Q2428 878 2447 884Q2466 891 2486 891Q2504 891 2523 886Q2543 881 2560 868Q2578 855 2592 834Q2606 813 2615 782Q2640 779 2657 777Q2675 776 2687 775Q2699 774 2707 774Q2715 774 2723 774L2830 774Q2839 774 2856 763Q2874 752 2891 734Q2908 717 2919 697Q2931 677 2928 659Q2928 653 2921 630Q2914 607 2904 572Q2894 537 2882 491Q2870 446 2860 396Q2850 346 2843 292Q2836 239 2836 188Q2836 167 2841 147Q2846 127 2856 111Q2866 96 2881 87Q2897 78 2918 78Q2953 78 2978 100Q3003 122 3020 155Q3037 188 3047 226Q3058 265 3065 299Q3071 331 3085 345Q3099 360 3114 360Q3126 360 3139 352Q3152 345 3162 333Q3173 321 3179 306Q3186 291 3186 276Q3186 271 3185 268Q3184 265 3184 262Q3170 211 3147 155Q3125 99 3090 52Q3055 5 3006 -26Q2957 -57 2891 -57ZM3182 985Q3157 985 3134 995Q3112 1005 3095 1022Q3079 1039 3069 1061Q3059 1084 3059 1110Q3059 1137 3069 1160Q3079 1183 3095 1199Q3112 1216 3134 1225Q3157 1235 3182 1235Q3209 1235 3232 1225Q3255 1216 3271 1199Q3288 1183 3297 1160Q3307 1137 3307 1110Q3307 1084 3297 1061Q3288 1039 3271 1022Q3255 1005 3232 995Q3209 985 3182 985ZM3229 692L3229 172Q3229 165 3230 149Q3231 134 3236 118Q3241 102 3252 90Q3263 78 3283 78Q3313 78 3335 100Q3358 122 3374 155Q3391 188 3402 226Q3413 265 3420 299Q3426 330 3438 344Q3451 358 3465 359Q3480 361 3494 352Q3509 343 3520 328Q3532 314 3537 296Q3543 278 3539 262Q3525 211 3502 155Q3480 99 3445 52Q3410 5 3361 -26Q3312 -57 3246 -57Q3205 -57 3173 -42Q3141 -26 3119 0Q3097 26 3085 61Q3074 96 3074 135L3074 682Q3074 711 3069 724Q3065 737 3065 748Q3065 763 3081 772Q3097 782 3119 782Q3170 782 3199 755Q3229 729 3229 692ZM3755 -57Q3687 -57 3623 -32Q3559 -7 3509 42Q3460 91 3430 163Q3401 235 3401 330Q3401 418 3426 503Q3451 588 3495 654Q3539 721 3600 762Q3662 803 3735 803Q3788 803 3825 781Q3862 760 3885 729Q3908 699 3918 664Q3929 629 3929 602Q3929 582 3918 566Q3908 550 3893 539Q3878 528 3860 522Q3842 517 3828 518Q3814 519 3805 528Q3797 537 3800 555Q3796 568 3792 587Q3789 606 3780 623Q3772 641 3757 653Q3742 666 3716 666Q3688 666 3661 639Q3635 613 3614 567Q3594 521 3581 460Q3569 399 3569 330Q3569 269 3584 222Q3600 175 3628 143Q3656 111 3694 94Q3733 78 3778 78Q3838 78 3882 100Q3927 123 3958 160Q3989 197 4008 243Q4027 289 4036 336Q4043 370 4064 381Q4086 393 4108 387Q4131 381 4147 361Q4164 342 4161 315Q4157 284 4146 244Q4136 204 4116 163Q4096 122 4065 82Q4035 43 3991 12Q3947 -19 3888 -38Q3830 -57 3755 -57ZM4599 -57Q4564 -57 4535 -46Q4507 -35 4485 -16Q4464 4 4450 30Q4436 57 4431 88Q4394 23 4344 -18Q4294 -59 4226 -59Q4175 -59 4134 -38Q4094 -17 4066 21Q4038 60 4023 114Q4009 169 4009 236Q4009 317 4020 399Q4032 481 4046 547Q4062 624 4083 696Q4088 709 4090 722Q4093 736 4102 747Q4111 758 4130 765Q4150 772 4191 772Q4229 772 4240 758Q4251 745 4248 727Q4246 709 4236 690Q4227 671 4224 659Q4210 602 4199 555Q4188 508 4180 460Q4173 413 4169 361Q4165 310 4165 246Q4165 162 4189 119Q4214 76 4259 76Q4290 76 4316 99Q4343 122 4364 160Q4386 199 4402 248Q4418 298 4427 352L4427 682Q4427 704 4423 717Q4420 730 4416 737Q4413 745 4409 749Q4406 754 4406 760Q4406 765 4412 769Q4418 773 4428 776Q4438 779 4449 780Q4461 782 4472 782Q4523 782 4552 755Q4582 729 4582 692L4582 172Q4582 165 4583 149Q4584 134 4589 118Q4594 102 4605 90Q4616 78 4636 78Q4667 78 4689 100Q4712 122 4728 155Q4745 188 4755 226Q4766 265 4773 299Q4779 331 4793 345Q4807 360 4822 360Q4834 360 4847 352Q4860 345 4870 333Q4881 321 4887 306Q4894 291 4894 276Q4894 274 4894 271Q4894 268 4892 262Q4878 211 4855 155Q4833 99 4798 52Q4763 5 4714 -26Q4665 -57 4599 -57ZM4936 1190L4936 606Q4947 627 4957 662Q4968 698 4977 741Q4987 784 4995 831Q5003 878 5009 923Q5015 968 5018 1007Q5022 1047 5022 1075Q5022 1177 5007 1224Q4992 1272 4967 1272Q4959 1272 4953 1264Q4947 1256 4943 1243Q4939 1231 4937 1216Q4936 1202 4936 1190ZM5227 297Q5233 327 5245 340Q5258 354 5272 355Q5287 357 5302 348Q5317 340 5328 326Q5339 312 5344 294Q5350 277 5346 260Q5332 219 5306 164Q5280 109 5240 60Q5200 11 5146 -23Q5092 -57 5022 -57Q4963 -57 4918 -38Q4873 -18 4842 17Q4812 53 4796 102Q4781 152 4781 213L4781 1145Q4781 1202 4795 1250Q4810 1299 4835 1333Q4861 1368 4895 1387Q4929 1407 4967 1407Q5012 1407 5043 1390Q5074 1374 5094 1347Q5114 1320 5125 1285Q5137 1250 5142 1213Q5147 1177 5148 1141Q5149 1106 5149 1077Q5149 1002 5135 919Q5121 837 5099 757Q5078 677 5052 603Q5027 530 5003 473Q4980 416 4961 380Q4943 344 4936 338L4936 219Q4936 157 4962 117Q4988 78 5045 78Q5080 78 5110 99Q5141 121 5164 153Q5188 186 5204 224Q5220 263 5227 297ZM5795 -57Q5760 -57 5731 -46Q5703 -35 5681 -16Q5660 4 5646 30Q5632 57 5627 88Q5590 23 5540 -18Q5490 -59 5422 -59Q5371 -59 5330 -38Q5290 -17 5262 21Q5234 60 5219 114Q5205 169 5205 236Q5205 317 5216 399Q5228 481 5242 547Q5258 624 5279 696Q5284 709 5286 722Q5289 736 5298 747Q5307 758 5326 765Q5346 772 5387 772Q5425 772 5436 758Q5447 745 5444 727Q5442 709 5432 690Q5423 671 5420 659Q5406 602 5395 555Q5384 508 5376 460Q5369 413 5365 361Q5361 310 5361 246Q5361 162 5385 119Q5410 76 5455 76Q5486 76 5512 99Q5539 122 5560 160Q5582 199 5598 248Q5614 298 5623 352L5623 682Q5623 704 5619 717Q5616 730 5612 737Q5609 745 5605 749Q5602 754 5602 760Q5602 765 5608 769Q5614 773 5624 776Q5634 779 5645 780Q5657 782 5668 782Q5719 782 5748 755Q5778 729 5778 692L5778 172Q5778 165 5779 149Q5780 134 5785 118Q5790 102 5801 90Q5812 78 5832 78Q5863 78 5885 100Q5908 122 5924 155Q5941 188 5951 226Q5962 265 5969 299Q5975 331 5989 345Q6003 360 6018 360Q6030 360 6043 352Q6056 345 6066 333Q6077 321 6083 306Q6090 291 6090 276Q6090 274 6090 271Q6090 268 6088 262Q6074 211 6051 155Q6029 99 5994 52Q5959 5 5910 -26Q5861 -57 5795 -57ZM7199 262Q7185 211 7162 155Q7140 99 7105 52Q7070 5 7021 -26Q6972 -57 6906 -57Q6865 -57 6833 -42Q6802 -26 6779 0Q6757 26 6745 61Q6734 96 6734 135L6734 551Q6734 575 6733 596Q6732 617 6728 633Q6724 649 6716 658Q6709 668 6696 668Q6675 668 6645 638Q6615 608 6587 560Q6559 512 6537 451Q6515 391 6511 330L6511 31Q6511 16 6510 0Q6510 -15 6504 -28Q6499 -40 6487 -49Q6476 -57 6454 -57Q6439 -57 6421 -54Q6404 -50 6389 -41Q6375 -31 6365 -14Q6356 4 6356 33L6356 551Q6356 575 6354 596Q6353 617 6349 633Q6345 649 6337 658Q6330 668 6317 668Q6296 668 6266 638Q6237 608 6208 560Q6180 512 6158 451Q6137 391 6132 330L6132 31Q6132 16 6131 0Q6131 -15 6125 -28Q6120 -40 6108 -49Q6097 -57 6075 -57Q6060 -57 6042 -54Q6025 -50 6010 -41Q5996 -31 5986 -14Q5977 4 5977 33L5977 682Q5977 711 5972 724Q5968 737 5968 748Q5968 763 5984 772Q6000 782 6022 782Q6073 782 6102 755Q6132 729 6132 692L6132 606Q6152 648 6175 684Q6199 720 6226 746Q6253 773 6283 788Q6314 803 6349 803Q6395 803 6425 786Q6456 769 6474 741Q6493 713 6501 678Q6509 644 6511 610Q6530 651 6553 686Q6576 721 6603 747Q6630 773 6660 788Q6691 803 6726 803Q6776 803 6808 784Q6840 765 6858 735Q6876 705 6883 668Q6890 631 6890 596L6890 172Q6890 165 6891 149Q6892 134 6897 118Q6902 102 6912 90Q6923 78 6943 78Q6974 78 6996 100Q7019 122 7035 155Q7052 188 7063 226Q7074 265 7081 299Q7087 331 7100 345Q7114 360 7130 360Q7142 360 7154 352Q7167 345 7177 333Q7188 321 7194 306Q7201 291 7201 276Q7201 274 7201 271Q7201 268 7199 262Z" fill="#ffffff" style=""></path></g></g><g transform="matrix(0.75,0,0,0.75,-3.632,906)"><g transform="matrix(1.024,0,0,-1.024,0,0)"><path d="M417 636Q463 636 512 627Q561 619 590 604Q598 600 600 595Q603 591 605 580L616 459Q616 456 611 455Q606 455 605 458Q579 536 520 574Q461 613 378 613Q305 613 251 579Q197 546 168 485Q140 424 140 344Q140 251 176 173Q212 95 273 49Q335 4 408 4Q552 4 614 169Q614 172 618 172Q621 172 623 171Q626 170 626 168L612 47Q610 35 607 31Q605 28 596 24Q504 -12 408 -12Q287 -12 206 36Q125 85 87 160Q49 235 49 317Q49 410 100 482Q152 555 236 595Q321 636 417 636ZM1151 12Q1154 12 1154 6Q1154 0 1151 0Q1126 0 1112 1L1057 2L1000 1Q986 0 962 0Q960 0 960 6Q960 12 962 12Q999 12 1010 25Q1022 39 1022 81L1022 235Q1022 293 1000 320Q979 348 934 348Q905 348 875 333Q845 319 821 294L821 81Q821 39 833 25Q845 12 882 12Q885 12 885 6Q885 0 882 0Q857 0 843 1L788 2L731 1Q717 0 693 0Q691 0 691 6Q691 12 693 12Q730 12 741 25Q753 39 753 81L753 595Q753 631 746 646Q740 662 723 662Q705 662 679 649L677 649Q674 649 672 654Q670 659 673 660L807 725L810 725Q814 725 817 722Q821 719 821 715L821 313Q894 397 975 397Q1030 397 1060 365Q1090 333 1090 274L1090 81Q1090 39 1102 25Q1114 12 1151 12ZM1454 395Q1477 395 1497 381Q1517 368 1517 349Q1517 334 1507 323Q1497 313 1480 313Q1470 313 1463 316Q1456 320 1451 324Q1446 329 1444 330Q1436 338 1428 342Q1421 347 1410 347Q1398 347 1384 337Q1370 328 1342 296L1342 81Q1342 52 1349 37Q1357 23 1377 17Q1397 12 1437 12Q1440 12 1440 6Q1440 0 1437 0Q1404 0 1384 1L1308 2L1252 1Q1238 0 1214 0Q1211 0 1211 6Q1211 12 1214 12Q1250 12 1261 25Q1273 39 1273 81L1273 276Q1273 309 1265 323Q1258 338 1240 338Q1221 338 1187 324L1185 324Q1182 324 1180 329Q1179 334 1182 335L1306 394Q1308 395 1312 395Q1322 395 1331 373Q1341 351 1342 315Q1383 361 1407 378Q1432 395 1454 395ZM1589 0Q1586 0 1586 6Q1586 12 1589 12Q1625 12 1637 25Q1649 39 1649 81L1649 265Q1649 301 1642 316Q1635 332 1617 332Q1600 332 1574 319L1573 319Q1569 319 1567 324Q1565 330 1569 331L1705 394L1709 395Q1712 395 1715 392Q1719 389 1719 385Q1719 378 1718 345Q1717 312 1717 267L1717 81Q1717 39 1728 25Q1740 12 1777 12Q1780 12 1780 6Q1780 0 1777 0Q1753 0 1738 1L1683 2L1628 1Q1613 0 1589 0ZM1677 506Q1654 506 1640 519Q1627 532 1627 555Q1627 577 1640 589Q1654 602 1677 602Q1699 602 1711 589Q1724 577 1724 555Q1724 532 1711 519Q1699 506 1677 506ZM1916 329Q1916 296 1938 275Q1961 254 2003 232Q2039 213 2058 199Q2078 186 2092 165Q2106 144 2106 113Q2106 62 2067 25Q2029 -11 1962 -11Q1910 -11 1864 18Q1858 24 1858 30L1856 115Q1856 118 1861 118Q1867 119 1868 116Q1886 66 1918 37Q1951 8 1991 8Q2019 8 2034 22Q2050 36 2050 63Q2050 91 2038 110Q2026 130 2008 141Q1991 153 1961 169Q1928 185 1908 198Q1889 211 1875 232Q1862 253 1862 285Q1862 341 1903 369Q1944 398 2001 398Q2040 398 2077 383Q2086 380 2086 372Q2086 350 2085 338L2084 293Q2084 291 2078 291Q2072 291 2072 293Q2072 313 2056 333Q2040 353 2015 365Q1991 378 1966 378Q1943 378 1929 366Q1916 355 1916 329ZM2461 57L2463 58Q2467 58 2469 53Q2471 49 2468 47Q2431 16 2400 2Q2369 -12 2335 -12Q2293 -12 2264 7Q2236 27 2236 73L2236 304Q2236 339 2226 349Q2217 359 2184 359Q2181 359 2181 367Q2181 374 2184 374Q2228 375 2255 395Q2282 416 2290 452Q2291 455 2298 455Q2305 455 2305 452L2305 375Q2354 376 2441 385Q2444 385 2446 378Q2448 371 2448 362Q2448 353 2445 344Q2442 336 2438 337Q2375 350 2305 352L2305 107Q2305 67 2325 47Q2345 28 2382 28Q2426 28 2461 57ZM2535 0Q2532 0 2532 6Q2532 12 2535 12Q2571 12 2583 25Q2595 39 2595 81L2595 265Q2595 301 2588 316Q2581 332 2563 332Q2546 332 2520 319L2519 319Q2515 319 2513 324Q2511 330 2515 331L2651 394L2655 395Q2658 395 2661 392Q2665 389 2665 385Q2665 378 2664 345Q2663 312 2663 267L2663 81Q2663 39 2674 25Q2686 12 2723 12Q2726 12 2726 6Q2726 0 2723 0Q2699 0 2684 1L2629 2L2574 1Q2559 0 2535 0ZM2623 506Q2600 506 2586 519Q2573 532 2573 555Q2573 577 2586 589Q2600 602 2623 602Q2645 602 2657 589Q2670 577 2670 555Q2670 532 2657 519Q2645 506 2623 506ZM3171 54L3172 54Q3176 54 3177 49Q3179 45 3175 43L3072 -6Q3068 -8 3063 -8Q3050 -8 3038 8Q3027 25 3023 54L2966 23Q2909 -7 2871 -7Q2840 -7 2822 9Q2805 26 2805 53Q2805 82 2826 98Q2848 114 2906 134L3021 174L3021 255Q3021 319 3005 346Q2990 374 2961 374Q2930 374 2912 351Q2895 329 2891 293Q2887 249 2847 249Q2829 249 2819 258Q2809 267 2809 283Q2809 307 2840 333Q2872 360 2916 377Q2960 395 2995 395Q3037 395 3063 367Q3089 340 3089 285L3089 108Q3089 75 3098 59Q3108 43 3128 43Q3146 43 3171 54ZM2975 45L3021 69L3021 79L3021 160L2933 127Q2909 118 2898 106Q2888 95 2888 78Q2888 57 2900 45Q2912 33 2931 33Q2953 33 2975 45ZM3676 12Q3679 12 3679 6Q3679 0 3676 0Q3652 0 3637 1L3582 2L3527 1Q3512 0 3488 0Q3485 0 3485 6Q3485 12 3488 12Q3524 12 3535 25Q3547 39 3547 81L3547 237Q3547 295 3526 322Q3505 349 3459 349Q3431 349 3401 335Q3371 321 3347 296L3347 81Q3347 39 3358 25Q3370 12 3407 12Q3410 12 3410 6Q3410 0 3407 0Q3383 0 3368 1L3313 2L3257 1Q3243 0 3219 0Q3216 0 3216 6Q3216 12 3219 12Q3255 12 3266 25Q3278 39 3278 81L3278 276Q3278 309 3270 323Q3263 338 3245 338Q3226 338 3192 324L3190 324Q3187 324 3185 329Q3184 334 3187 335L3311 394Q3313 395 3317 395Q3327 395 3336 372Q3346 350 3347 314Q3420 399 3500 399Q3555 399 3585 366Q3616 334 3616 276L3616 81Q3616 39 3627 25Q3639 12 3676 12Z" fill="#ffffff" style=""></path></g></g></g></svg>