<svg version="1.1" xmlns="http://www.w3.org/2000/svg" viewBox="-271.2 -1045.7 5817.37708691047 2250.2920318603515"><desc>Created with Snap</desc><defs></defs><g><rect x="-271.2" y="-1045.7" width="5817.37708691047" height="2250.2920318603515" fill="#421e86" style=""></rect><g transform="matrix(34.7323,0,0,34.7323,3585.7189,-755.8662)"><g><path d="M45.4,30.2V2.5c0-1.1-0.9-2-2-2h-39c-1.1,0-2,0.9-2,2v27.7H45.4z M18.9,11c-0.8-0.7-1-1.9-0.3-2.8c0.7-0.8,1.9-1,2.8-0.3   l7.8,6.3c0.5,0.4,0.7,0.9,0.7,1.5c0,0.6-0.3,1.1-0.7,1.5l-7.8,6.3c-0.4,0.3-0.8,0.4-1.2,0.4c-0.6,0-1.1-0.2-1.5-0.7   c-0.7-0.8-0.6-2.1,0.3-2.8l5.9-4.8L18.9,11z" fill="#ffffff" style=""></path><path d="M45.9,34.1H2.1L0.5,45.3c-0.1,0.6,0.1,1.1,0.5,1.6s0.9,0.7,1.5,0.7h43.1c0,0,0,0,0,0c1.1,0,2-0.9,2-2c0-0.2,0-0.4-0.1-0.5   L45.9,34.1z" fill="#ffffff" style=""></path></g><desc>Created with Snap</desc><defs></defs></g><g><g transform="matrix(1,0,0,-1,0,0)"><path d="M381 644Q375 643 372 646Q369 649 365 649Q355 646 349 650Q346 652 343 651Q340 650 337 650Q332 650 329 653Q326 656 322 657Q317 656 312 656Q307 656 302 656Q293 656 287 653Q281 651 278 651Q267 653 266 652Q265 651 263 650Q257 646 247 647Q237 648 230 646Q229 646 223 643Q218 640 212 636Q206 632 200 628Q194 625 193 624Q191 617 188 611Q186 606 184 599Q167 586 160 579Q154 573 152 558Q144 545 142 538Q140 531 140 523Q140 517 143 512Q146 508 146 502Q153 495 151 493Q149 492 158 488Q164 486 164 478Q175 471 177 466Q180 462 188 460Q190 456 191 453Q193 450 195 447Q202 445 207 442Q212 439 217 437Q222 435 227 434Q233 434 241 437Q246 429 254 426Q263 426 277 426Q292 426 307 427Q323 428 336 430Q350 432 356 437Q362 435 366 431Q371 428 376 424Q383 426 389 423Q396 421 402 418Q408 415 414 413Q421 412 430 415Q433 411 436 407Q439 403 443 400Q454 398 465 395Q476 392 484 382L500 382Q502 374 508 373Q515 372 520 367Q524 367 525 365Q526 363 527 361Q528 360 529 359Q531 358 536 359Q540 347 552 343Q559 327 567 323Q565 315 571 307Q578 299 578 288Q582 283 584 277Q586 271 591 266Q588 255 589 245Q591 236 594 227Q597 218 600 209Q604 200 604 191Q604 187 603 184Q602 181 601 178Q601 176 603 173Q606 170 606 167Q606 160 603 157Q600 155 602 147Q595 142 592 137Q590 132 591 124Q586 123 585 120Q585 118 580 117Q581 107 576 100Q571 94 571 85Q571 80 567 79Q563 79 560 77Q559 72 555 62Q549 62 548 60Q548 59 546 57Q528 46 519 36Q511 27 492 22Q487 21 485 17Q483 14 479 12L467 12Q462 7 458 4Q455 1 453 -5Q434 -13 419 -25Q409 -24 398 -28Q388 -31 380 -27Q375 -29 359 -34Q343 -38 338 -38Q332 -38 331 -35Q331 -31 323 -31Q317 -31 311 -34Q306 -36 300 -36Q289 -36 279 -32Q269 -27 258 -34Q250 -31 243 -28Q237 -25 229 -23Q226 -22 222 -22Q219 -22 216 -21Q205 -18 200 -15Q196 -12 184 -12Q167 -12 153 -5Q139 3 123 5Q117 16 105 21Q104 26 101 28Q98 30 95 32Q90 36 86 41Q83 46 80 51Q74 53 69 57Q64 62 59 67Q60 76 58 79Q57 83 51 91L51 108Q46 115 41 122Q36 129 36 138Q36 150 43 161Q50 172 55 183Q63 184 67 184Q72 185 76 184Q81 183 85 183Q89 183 91 189Q97 182 102 175Q108 168 116 164Q116 152 121 146Q126 140 129 129Q131 122 137 120Q143 118 142 107Q145 105 149 103Q153 101 157 99Q157 94 158 91Q159 89 161 84Q168 77 177 74Q187 71 194 64Q200 64 204 62Q209 61 214 64Q222 61 227 59Q233 58 241 58Q246 58 248 54Q250 51 252 51Q260 51 262 56Q272 54 279 50Q287 47 298 47Q306 47 315 48Q324 49 332 49Q339 49 345 48Q352 47 358 47Q362 47 375 51Q389 55 394 57Q404 60 406 66L417 66Q426 77 439 81Q452 86 463 94Q465 94 469 94Q473 94 475 96Q481 98 483 104Q486 111 488 116Q493 114 494 117Q495 121 501 120Q503 125 501 130Q511 133 513 141Q516 149 521 157Q519 162 520 166Q521 171 521 176Q519 184 520 186Q521 189 521 191Q521 197 519 207Q517 217 513 228Q510 239 505 248Q501 258 497 263Q498 274 493 277Q489 281 487 290Q485 291 480 293Q476 296 470 299Q465 302 461 305Q457 308 456 309Q445 316 435 315Q425 314 417 324Q415 324 410 321Q406 319 401 319Q400 323 398 325Q397 327 395 330Q381 332 367 339Q354 346 340 346Q335 346 330 343Q325 341 320 341Q316 341 313 342Q310 343 307 343Q302 343 298 342Q294 341 290 341Q283 341 277 343Q271 345 264 345Q261 345 258 344Q255 343 252 343Q243 343 236 346Q230 350 217 349Q212 349 209 352Q206 356 197 356Q192 356 186 357Q181 358 177 362Q165 360 160 363Q156 366 151 370Q146 375 141 379Q137 384 136 386Q132 385 131 387Q130 389 125 388Q119 398 110 406Q101 415 96 426Q93 430 83 434Q83 438 81 441Q80 444 81 448Q64 462 64 480Q61 485 59 488Q58 492 53 495Q55 503 57 513Q60 524 52 530Q61 541 61 553Q62 566 70 577Q71 582 72 587Q73 592 72 597Q77 598 83 607Q89 616 90 621Q100 623 104 631Q108 639 116 644Q118 654 124 661Q130 668 135 676Q140 687 145 695Q151 704 162 710Q170 709 179 712Q188 716 193 714Q196 716 198 719Q201 722 205 723Q216 730 219 729Q222 729 228 729Q245 729 251 733Q258 738 266 738Q270 738 274 736Q278 735 282 735Q290 735 302 736Q314 738 326 738Q339 739 350 738Q361 738 368 734Q373 731 378 732Q384 733 389 731Q394 729 396 725Q398 721 402 718Q407 718 417 716Q427 714 437 711Q448 708 457 705Q467 702 471 699Q476 700 481 698Q486 696 491 697Q493 690 499 689Q505 689 507 681Q509 680 513 678Q517 676 521 673Q526 671 530 669Q534 668 535 668Q538 668 541 669Q544 671 547 671Q550 660 555 650Q560 641 565 632Q563 624 562 617Q561 610 560 602Q553 599 546 595Q540 592 532 592Q526 592 521 594Q516 597 510 597Q505 597 501 595Q498 594 493 595Q476 604 469 616Q462 615 459 617Q457 620 453 625Q449 623 448 622Q447 621 442 623Q440 628 433 631Q426 634 421 634Q418 634 415 632Q413 631 410 631Q405 631 400 634Q395 637 392 637Q382 635 382 638Q382 641 381 644ZM1122 471Q1121 461 1126 458Q1132 456 1132 448Q1132 447 1125 442Q1118 437 1116 435Q1103 438 1093 432Q1084 426 1079 423Q1073 427 1067 425Q1061 423 1055 423Q1045 423 1036 426Q1028 430 1019 430Q1016 430 1013 429Q1010 428 1006 428Q991 436 982 433Q973 430 966 438Q958 434 949 433Q941 433 935 428Q927 431 919 429Q911 428 903 431Q896 425 899 422Q903 419 903 414Q900 411 899 407Q899 404 899 400Q900 397 899 393Q898 389 894 386Q898 381 899 375Q901 369 902 363Q903 357 904 351Q905 346 910 342Q905 332 908 322Q912 312 916 303Q919 295 918 287Q918 280 923 273Q918 264 920 258Q922 253 925 247Q928 242 930 237Q933 232 935 231Q934 225 932 216Q931 208 933 203Q932 192 933 186Q934 181 936 175Q938 170 939 164Q941 159 938 150Q939 146 940 142Q941 138 945 136Q945 133 942 131Q939 130 938 125Q943 112 950 102Q948 91 950 86Q952 81 953 71Q950 66 946 61Q942 57 938 52Q939 35 937 20Q936 6 915 4Q908 3 908 -6Q901 -5 897 -8Q893 -11 888 -11Q884 -5 881 -6Q878 -7 873 -7Q869 -7 862 1Q855 9 847 11Q850 17 848 20Q847 24 845 27Q844 30 844 33Q844 36 849 40Q844 54 846 68Q849 83 844 97Q853 106 851 120Q849 134 849 145Q849 149 850 152Q851 156 851 161Q851 169 847 174Q843 180 841 187Q843 207 841 225Q840 243 829 260Q828 265 829 267Q831 270 831 275Q829 279 828 283Q827 288 822 290Q826 302 825 310Q825 318 822 324Q820 331 817 336Q814 342 814 348Q814 351 815 354Q817 357 817 360Q817 364 814 367Q811 371 811 374Q814 388 811 393Q809 398 809 403Q809 407 809 410Q810 413 810 416Q810 424 803 430Q797 436 789 436Q780 436 771 433Q763 430 754 430Q740 430 726 431Q713 432 699 430Q693 429 687 426Q681 423 675 423Q669 423 663 426Q658 430 652 430Q647 442 637 449Q627 456 618 464Q614 477 619 483Q624 489 628 500Q634 504 640 508Q647 512 651 518Q657 515 664 514Q671 513 677 509Q682 510 686 512Q691 514 696 514Q701 514 705 511Q709 509 714 509Q719 509 724 512Q729 515 734 517Q739 512 745 512Q752 513 758 514Q765 515 771 515Q777 516 781 511Q786 513 789 516Q793 519 797 522Q808 520 818 514Q829 509 841 509Q845 509 848 510Q851 512 855 512Q861 512 867 510Q873 509 878 508Q884 507 889 508Q895 509 901 514Q906 511 910 508Q915 505 920 502Q937 505 955 503Q973 501 990 509Q995 508 999 507Q1003 507 1007 504Q1016 510 1026 509Q1036 508 1043 514Q1051 518 1054 517Q1057 517 1060 517Q1075 524 1081 522Q1088 521 1093 526Q1102 522 1107 518Q1113 514 1124 514Q1126 509 1131 501Q1136 494 1136 489Q1136 481 1131 478Q1126 476 1122 471ZM1728 71Q1727 66 1719 63Q1711 61 1706 56Q1706 50 1703 47Q1700 45 1701 37Q1696 35 1691 28Q1686 21 1681 21Q1674 21 1669 24Q1665 28 1656 26Q1648 41 1634 47Q1627 60 1620 72Q1613 84 1607 97Q1592 110 1583 114Q1574 119 1566 117Q1559 116 1550 110Q1542 104 1527 95Q1517 95 1499 95Q1482 95 1474 99Q1471 100 1468 101Q1466 103 1463 103Q1459 103 1455 101Q1452 100 1448 100Q1444 100 1441 101Q1438 102 1434 103Q1430 103 1427 102Q1425 102 1422 103Q1416 100 1413 97Q1411 95 1407 95Q1393 100 1377 102Q1362 104 1348 112Q1340 114 1339 109Q1338 105 1333 105Q1322 106 1313 104Q1304 103 1293 103Q1288 103 1282 104Q1277 105 1272 105Q1266 105 1261 102Q1256 100 1251 100Q1247 100 1244 101Q1241 103 1236 103Q1231 103 1227 100Q1224 98 1220 98Q1215 98 1211 98Q1207 99 1203 99Q1194 99 1190 95Q1186 92 1184 86Q1183 81 1182 75Q1181 70 1176 66Q1178 51 1175 42Q1172 33 1163 21Q1150 20 1138 17Q1126 15 1113 15Q1105 15 1102 20Q1099 25 1094 30Q1087 36 1083 42Q1080 48 1075 56Q1076 60 1079 62Q1083 65 1086 67Q1084 73 1085 77Q1087 81 1090 85Q1093 89 1095 93Q1098 98 1098 103Q1098 109 1098 111Q1099 113 1100 114Q1101 115 1102 116Q1103 117 1105 121Q1107 125 1106 128Q1105 132 1107 136Q1111 145 1116 152Q1122 160 1127 168Q1129 173 1130 177Q1132 181 1134 185Q1137 193 1145 200L1145 213Q1148 217 1150 220Q1152 223 1157 225Q1156 237 1163 245Q1170 254 1172 265Q1186 273 1195 287Q1205 302 1202 319Q1210 322 1214 330Q1218 338 1226 341Q1226 349 1228 355Q1231 361 1231 369Q1240 374 1243 382Q1247 391 1251 399Q1252 401 1255 406Q1258 412 1261 418Q1264 424 1266 428Q1269 433 1269 435Q1287 465 1290 491Q1296 497 1298 499Q1301 502 1302 504Q1303 507 1303 510Q1303 514 1305 521Q1308 520 1310 523Q1313 527 1316 532Q1320 537 1325 541Q1331 546 1340 546Q1350 546 1359 544Q1368 542 1378 541Q1383 535 1388 530Q1394 525 1399 518L1399 506Q1407 496 1414 485Q1422 475 1434 470Q1433 459 1438 457Q1444 456 1451 451Q1450 442 1452 437Q1455 433 1458 427Q1462 422 1465 417Q1468 413 1469 411Q1474 402 1481 402Q1480 397 1484 395Q1488 394 1486 387Q1495 378 1508 373Q1508 366 1513 360Q1518 355 1523 352Q1524 347 1527 345Q1530 343 1533 341Q1538 338 1540 333Q1543 328 1548 326Q1549 317 1558 305Q1567 294 1577 282Q1587 271 1595 261Q1603 252 1602 247Q1610 242 1617 236Q1625 231 1635 227Q1635 219 1634 215Q1634 212 1635 209Q1636 207 1639 205Q1642 203 1649 198Q1648 193 1653 186Q1655 182 1656 177Q1657 173 1660 168Q1665 160 1673 155Q1682 151 1689 145Q1694 134 1697 123Q1700 112 1704 101Q1711 94 1719 91Q1720 86 1721 80Q1723 74 1728 71ZM1496 259Q1490 260 1487 263Q1484 267 1479 268Q1480 281 1474 282Q1468 283 1461 290Q1461 295 1457 296Q1453 298 1451 302Q1447 313 1446 314Q1445 316 1440 319Q1436 321 1436 324Q1436 327 1428 331Q1424 333 1420 334Q1416 335 1414 339Q1408 350 1399 362Q1391 375 1389 389Q1379 395 1374 403Q1370 411 1356 413Q1348 403 1345 391Q1342 380 1332 372L1332 359Q1327 353 1321 346Q1316 339 1317 331Q1309 329 1309 323Q1309 317 1305 312Q1303 309 1300 308Q1298 307 1298 302Q1293 292 1291 286Q1289 280 1286 275Q1275 270 1277 266Q1279 262 1276 255Q1272 248 1266 245Q1261 243 1263 232Q1252 222 1244 209Q1237 197 1239 182Q1249 183 1259 182Q1269 181 1279 181Q1290 181 1299 185Q1309 189 1320 189Q1333 189 1346 182Q1359 176 1371 182Q1376 180 1379 178Q1382 176 1387 174Q1420 168 1454 179Q1464 175 1469 174Q1472 176 1480 177Q1488 178 1496 179Q1505 180 1511 182Q1518 184 1517 187Q1524 191 1528 191Q1533 191 1533 202Q1533 208 1528 215Q1523 222 1516 229Q1509 237 1503 244Q1497 252 1496 259ZM2265 96Q2269 74 2260 60Q2251 47 2244 29Q2238 31 2235 26Q2233 22 2231 18Q2227 15 2222 15Q2218 16 2214 11Q2212 15 2211 18Q2210 21 2205 21Q2188 21 2164 17Q2140 14 2127 1Q2116 2 2108 -2Q2100 -5 2090 -11Q2087 -12 2086 -9Q2085 -5 2078 -7Q2071 -12 2061 -11Q2052 -9 2044 -9Q2033 -9 2022 -13Q2011 -17 2000 -17Q1992 -17 1985 -14Q1979 -11 1972 -6Q1964 -11 1959 -8Q1954 -4 1947 -4Q1934 -7 1929 -2Q1925 4 1916 2Q1913 7 1908 10Q1904 14 1899 18L1884 18Q1872 27 1858 33Q1845 39 1837 53Q1834 55 1830 56Q1827 58 1824 60Q1823 63 1821 64Q1820 66 1821 70Q1820 75 1812 79Q1808 81 1806 84Q1805 88 1800 88Q1798 98 1796 111Q1794 124 1784 129Q1784 134 1783 139Q1783 144 1777 145Q1780 158 1772 170Q1774 175 1775 181Q1776 188 1771 193Q1770 197 1772 199Q1775 201 1776 204Q1774 212 1771 220Q1768 229 1768 238Q1768 241 1768 243Q1769 246 1769 248Q1764 261 1767 265Q1771 270 1771 273Q1771 279 1770 284Q1769 290 1769 295Q1769 303 1774 311Q1779 319 1774 326Q1779 338 1778 343Q1778 348 1776 351Q1778 356 1781 358Q1785 361 1788 364Q1792 375 1797 386Q1802 398 1811 406L1811 422Q1817 424 1819 429Q1821 435 1821 440Q1831 447 1836 455Q1841 464 1848 473Q1855 482 1861 489Q1868 497 1872 500Q1874 505 1876 509Q1879 513 1882 517Q1886 521 1892 521Q1899 521 1900 529Q1913 531 1917 536Q1922 541 1927 541Q1932 541 1936 538Q1940 536 1945 543Q1951 539 1956 542Q1962 545 1967 548Q1973 543 1983 547Q1994 551 2002 551Q2005 551 2010 553Q2015 556 2018 558Q2022 553 2027 558Q2032 563 2035 565Q2044 561 2051 563Q2058 565 2067 563Q2075 561 2076 562Q2077 563 2078 563Q2085 562 2090 558Q2096 555 2103 554Q2113 552 2122 552Q2132 552 2142 551Q2144 548 2145 544Q2146 541 2150 539Q2154 537 2155 536Q2156 535 2159 532Q2164 526 2166 526Q2169 526 2168 516Q2176 518 2177 515Q2178 513 2183 513Q2184 509 2186 506Q2188 503 2190 499Q2186 490 2185 480Q2185 470 2181 461Q2176 458 2173 458Q2171 458 2164 452Q2157 449 2155 450Q2153 451 2151 452Q2141 449 2140 450Q2140 452 2138 454Q2135 458 2131 458Q2127 458 2123 459Q2119 459 2116 461Q2113 463 2109 464Q2100 472 2093 475Q2087 479 2079 479Q2077 479 2074 478Q2071 478 2068 478Q2050 479 2037 477Q2025 476 2012 479Q1999 476 1995 464Q1988 462 1979 462Q1971 462 1963 460Q1956 459 1950 455Q1944 451 1941 443Q1936 444 1934 442Q1933 440 1930 438Q1924 437 1922 434Q1920 431 1919 428Q1919 426 1917 424Q1916 422 1910 423Q1910 417 1906 407Q1902 397 1909 395Q1904 394 1904 391Q1904 389 1898 391Q1897 381 1891 379Q1885 377 1884 369Q1879 354 1877 350Q1876 347 1873 339Q1871 334 1871 330Q1872 326 1870 322Q1865 320 1865 318Q1866 316 1866 312Q1857 301 1860 294Q1863 287 1854 278Q1860 274 1860 269Q1860 264 1859 259Q1858 255 1858 250Q1858 245 1859 241Q1860 238 1860 234Q1860 231 1859 228Q1858 225 1858 222Q1858 217 1860 213Q1863 209 1863 204Q1860 191 1863 188Q1866 186 1866 183Q1872 171 1876 164Q1881 157 1883 146Q1891 139 1895 130Q1899 121 1910 118Q1910 115 1911 112Q1912 110 1913 108Q1920 106 1924 102Q1929 99 1934 95Q1943 87 1951 88Q1959 89 1969 85Q1971 82 1978 80Q1985 78 1993 77Q2001 76 2009 75Q2017 75 2021 75Q2029 75 2034 82Q2040 78 2047 80Q2052 80 2053 82Q2054 85 2057 87Q2065 83 2071 88Q2077 93 2080 93Q2083 93 2083 90Q2084 88 2091 88Q2096 88 2097 91Q2099 95 2102 97Q2105 97 2110 96Q2116 95 2122 94Q2128 94 2133 95Q2138 96 2141 99Q2144 97 2148 97Q2152 98 2156 100Q2160 103 2164 105Q2168 107 2171 108Q2171 114 2168 117Q2166 120 2166 123Q2166 128 2170 133Q2174 138 2174 145Q2174 150 2171 154Q2168 158 2168 162Q2168 166 2169 170Q2170 174 2170 178Q2170 188 2166 197Q2163 206 2163 215Q2163 217 2165 219Q2168 222 2168 224Q2165 230 2162 233Q2159 237 2151 235Q2150 239 2148 239Q2147 240 2149 245Q2140 251 2132 251Q2124 251 2114 251Q2109 251 2103 252Q2098 254 2093 254Q2088 254 2084 251Q2081 249 2078 249Q2061 251 2050 246Q2040 241 2032 239Q2024 244 2016 242Q2008 241 1999 241Q1994 241 1991 243Q1988 246 1983 246Q1971 247 1966 242Q1958 245 1950 250Q1943 255 1935 258Q1935 264 1932 269Q1930 275 1928 280Q1926 285 1925 291Q1925 297 1927 304Q1932 306 1941 311Q1950 316 1950 321Q1960 329 1972 327Q1985 325 1997 325Q2002 325 2007 326Q2013 328 2018 328Q2032 328 2050 325Q2068 323 2082 328Q2094 335 2099 333Q2104 332 2109 337Q2120 332 2129 337Q2139 342 2147 350Q2149 350 2151 345Q2153 340 2155 338Q2161 340 2167 337Q2174 334 2179 338Q2182 338 2185 334Q2188 330 2192 328Q2201 324 2211 325Q2221 327 2229 323Q2234 321 2235 316Q2237 312 2243 313L2246 289Q2248 283 2250 276Q2252 270 2253 264Q2253 260 2251 257Q2249 255 2247 251Q2249 243 2253 240Q2258 238 2263 233Q2263 228 2259 225Q2256 223 2255 218Q2259 214 2259 207Q2260 200 2260 191Q2261 183 2262 175Q2263 168 2267 162Q2264 153 2265 144Q2267 136 2268 127Q2270 119 2270 111Q2270 103 2265 96ZM2789 487Q2783 482 2776 472Q2770 462 2764 460Q2762 459 2759 459Q2756 460 2753 460Q2748 460 2746 458Q2744 456 2740 455Q2733 459 2726 460Q2719 461 2712 465Q2706 465 2703 462Q2700 459 2695 459Q2690 459 2685 461Q2681 463 2677 458Q2658 464 2638 466Q2619 469 2600 474Q2592 470 2584 470Q2577 471 2569 469Q2566 468 2563 466Q2560 465 2557 465Q2553 465 2550 466Q2547 467 2543 467Q2537 467 2531 464Q2525 462 2519 462Q2514 462 2511 464Q2508 467 2503 462Q2500 467 2496 464Q2493 462 2490 460Q2474 460 2468 461Q2463 463 2456 462Q2456 455 2456 442Q2456 429 2456 415Q2457 402 2457 390Q2457 379 2456 375Q2459 368 2466 368Q2474 368 2479 368Q2493 362 2507 361Q2522 361 2536 361Q2541 361 2544 362Q2548 363 2553 363Q2557 363 2565 361Q2574 360 2582 359Q2591 359 2597 361Q2604 363 2604 371Q2615 373 2619 367Q2624 361 2629 361Q2634 361 2636 365Q2638 369 2642 371Q2646 371 2647 367Q2648 364 2655 364Q2661 364 2668 368Q2676 373 2684 363Q2691 361 2694 363Q2697 365 2703 366Q2710 354 2719 343Q2728 333 2733 320Q2730 320 2726 317Q2722 314 2719 309Q2716 305 2714 301Q2712 297 2713 294Q2707 289 2700 284Q2694 280 2686 280Q2678 280 2676 283Q2675 286 2670 286Q2665 286 2661 284Q2658 283 2654 283Q2649 283 2643 284Q2638 286 2632 286Q2625 286 2618 283Q2612 281 2605 281Q2600 281 2596 283Q2593 285 2589 286Q2582 287 2576 287Q2570 288 2563 288Q2558 288 2554 285Q2551 283 2546 283Q2541 283 2535 284Q2530 286 2525 286Q2521 286 2518 285Q2515 284 2512 284Q2494 282 2483 280Q2472 279 2461 276Q2462 265 2462 254Q2463 243 2468 233Q2468 230 2465 229Q2463 228 2463 223Q2471 213 2472 201Q2474 190 2473 178Q2472 166 2471 154Q2470 142 2475 130Q2472 122 2470 115Q2469 109 2470 101Q2477 91 2488 91Q2493 91 2497 91Q2501 92 2506 92Q2510 92 2513 91Q2516 90 2520 90Q2532 90 2544 91Q2556 93 2568 93Q2572 93 2575 92Q2579 92 2583 92Q2590 92 2596 93Q2603 95 2610 95Q2615 95 2619 93Q2623 92 2628 92Q2637 92 2645 95Q2654 98 2663 98Q2665 98 2668 97Q2671 97 2673 97Q2678 97 2680 101Q2682 106 2684 107Q2689 108 2694 109Q2699 110 2704 111Q2708 112 2710 108Q2713 105 2714 102Q2723 101 2728 96Q2734 91 2742 90Q2744 85 2747 81Q2750 78 2755 78Q2753 70 2757 61Q2751 59 2746 54Q2742 49 2737 47Q2738 41 2739 35Q2740 30 2739 23Q2737 21 2733 21Q2730 22 2727 22Q2720 22 2718 17Q2717 13 2712 13Q2709 15 2704 15Q2699 15 2694 15Q2689 15 2684 15Q2680 15 2677 17Q2671 17 2667 14Q2663 12 2659 8Q2649 12 2640 9Q2632 6 2624 1Q2620 5 2616 5Q2613 5 2608 4Q2608 7 2605 9Q2603 12 2602 15Q2585 12 2568 13Q2551 15 2534 10Q2525 15 2512 15Q2500 15 2491 8Q2483 12 2474 8Q2465 5 2456 5Q2443 8 2440 5Q2438 3 2435 3Q2430 3 2425 3Q2421 3 2416 5Q2411 12 2407 12Q2404 12 2400 14Q2399 22 2391 29Q2383 36 2378 41Q2381 43 2384 44Q2388 46 2388 50Q2381 60 2380 64Q2380 68 2380 72Q2381 77 2380 81Q2380 86 2376 89Q2386 92 2386 96Q2386 110 2382 122Q2378 134 2378 148Q2386 156 2385 159Q2385 163 2385 173Q2385 184 2386 193Q2388 203 2379 211Q2381 221 2379 230Q2378 240 2378 250Q2378 262 2380 273Q2383 285 2383 297Q2383 304 2380 307Q2378 310 2378 313Q2381 326 2379 329Q2377 333 2376 338Q2374 353 2375 369Q2377 385 2377 401Q2377 412 2373 426Q2370 440 2372 446Q2370 449 2369 453Q2368 457 2364 459Q2370 467 2363 473Q2357 480 2357 488Q2357 497 2360 503Q2364 509 2360 519Q2369 523 2380 526Q2385 531 2386 534Q2387 538 2397 538Q2414 538 2430 535Q2446 533 2463 530Q2467 531 2470 531Q2473 532 2476 534Q2484 530 2491 530Q2498 531 2504 533Q2511 535 2517 537Q2524 540 2531 540Q2539 540 2546 538Q2553 537 2561 537Q2587 537 2613 540Q2640 544 2666 542Q2675 537 2673 533Q2677 535 2680 536Q2684 537 2689 537Q2701 537 2716 536Q2732 536 2743 533Q2749 527 2753 526Q2758 524 2762 522Q2766 521 2771 519Q2775 517 2778 515Q2782 514 2786 512Q2793 502 2788 497Q2784 493 2789 487ZM3295 218Q3290 196 3292 174Q3295 152 3290 131Q3288 118 3280 107Q3273 96 3275 82Q3272 81 3267 77Q3263 73 3258 68Q3254 63 3250 58Q3247 54 3246 51Q3231 39 3220 30Q3210 21 3200 11Q3192 12 3184 11Q3177 10 3172 2Q3163 4 3154 1Q3146 -1 3136 -1Q3132 -1 3129 1Q3126 4 3121 4Q3118 4 3115 2Q3112 1 3109 1Q3104 1 3098 2Q3092 3 3087 3Q3085 3 3079 1Q3073 -1 3066 -4Q3060 -6 3054 -9Q3049 -12 3048 -13Q3036 -8 3025 -3Q3014 2 3001 -1Q2989 10 2976 11Q2964 12 2950 14Q2946 14 2945 17Q2945 21 2945 24Q2931 22 2923 23Q2915 25 2909 29Q2904 34 2898 40Q2893 46 2884 52Q2886 58 2884 62Q2883 67 2880 71Q2877 76 2874 80Q2872 85 2873 93Q2866 106 2851 114Q2850 119 2848 122Q2846 125 2846 132Q2846 138 2842 139Q2838 141 2838 144Q2843 153 2850 159Q2858 165 2862 174Q2870 171 2873 172Q2876 174 2884 168Q2886 166 2891 163Q2897 160 2904 156Q2911 152 2917 149Q2923 146 2925 145Q2927 133 2934 127Q2942 121 2946 110Q2951 108 2954 106Q2957 105 2964 107Q2966 103 2970 101Q2974 99 2976 95Q2991 97 2999 93Q3007 89 3020 88Q3022 85 3024 82Q3026 80 3028 78Q3042 79 3058 78Q3075 77 3088 84Q3093 79 3098 81Q3103 83 3108 83Q3113 83 3117 80Q3122 78 3127 78Q3132 78 3136 79Q3141 80 3146 80Q3152 80 3152 85Q3153 90 3157 90Q3165 90 3173 97Q3182 104 3188 109Q3193 109 3194 112Q3196 116 3203 118Q3214 129 3214 142Q3215 155 3209 168Q3209 173 3212 177Q3216 182 3216 187Q3216 197 3209 207Q3202 217 3197 226Q3195 229 3193 229Q3191 230 3188 231Q3186 236 3184 236Q3183 237 3178 238Q3175 241 3169 245Q3163 249 3159 249Q3144 249 3143 252Q3143 255 3129 255Q3117 255 3105 250Q3102 252 3096 254Q3090 256 3083 256Q3077 257 3071 256Q3066 255 3063 252Q3061 254 3055 257Q3049 261 3047 261Q3016 261 2990 268Q2965 276 2939 276Q2926 282 2923 284Q2920 286 2914 286Q2909 292 2905 297Q2902 303 2896 307Q2896 316 2892 323Q2889 330 2884 336Q2880 342 2876 348Q2873 355 2873 364Q2866 376 2858 384Q2855 405 2858 431Q2861 458 2878 473L2878 489Q2888 489 2894 492Q2901 496 2906 501Q2912 506 2917 511Q2923 516 2931 519Q2936 521 2938 525Q2940 529 2942 534Q2964 532 2986 538Q3008 545 3030 549Q3035 550 3038 554Q3041 558 3045 561Q3052 560 3057 557Q3063 555 3069 554Q3074 552 3078 553Q3082 555 3087 555Q3092 555 3098 549Q3114 550 3122 544Q3130 538 3138 539Q3144 531 3154 527Q3164 523 3174 523Q3175 518 3179 516Q3183 514 3184 509Q3197 507 3203 498Q3210 490 3222 487Q3224 482 3226 479Q3229 477 3231 472Q3238 473 3239 471Q3241 469 3246 467Q3253 453 3258 435Q3253 427 3249 418Q3245 410 3237 405Q3211 405 3194 415Q3177 425 3160 444Q3155 446 3147 446Q3139 447 3136 450Q3126 459 3121 458Q3117 458 3112 460Q3101 462 3090 467Q3079 472 3067 472Q3061 472 3056 470Q3052 468 3047 467Q3042 466 3038 467Q3035 468 3030 468Q3022 468 3019 465Q3017 462 3015 462Q3002 462 2993 458Q2985 454 2979 452Q2975 450 2972 447Q2969 445 2968 440Q2957 438 2953 431Q2949 425 2941 422Q2938 417 2943 412Q2939 406 2941 402Q2943 399 2946 395Q2950 392 2954 387Q2958 383 2958 375Q2958 368 2964 366Q2971 365 2975 361Q2980 357 2988 352Q2996 348 3001 348Q3004 348 3006 349Q3009 350 3012 350Q3019 350 3024 347Q3030 345 3036 345Q3039 345 3042 345Q3045 346 3048 346Q3059 346 3067 342Q3076 339 3088 346Q3101 339 3110 340Q3120 341 3126 337Q3129 335 3131 333Q3134 331 3137 331Q3140 331 3142 332Q3145 333 3147 333Q3151 333 3155 331Q3159 329 3162 334Q3168 327 3177 328Q3186 329 3194 328Q3197 323 3198 321Q3199 320 3198 313Q3207 314 3212 312Q3217 311 3220 308Q3224 305 3227 302Q3231 300 3237 299Q3240 290 3245 283Q3251 276 3261 274Q3264 266 3270 259Q3276 253 3283 248Q3284 231 3295 218Z" fill="#ffffff" style=""></path></g></g><g transform="matrix(0.75,0,0,0.75,461.848,890.48)"><g transform="matrix(1.024,0,0,-1.024,0,0)"><path d="M355 67Q405 67 437 75Q470 83 502 98L523 24Q488 7 446 -1Q405 -9 345 -9Q283 -9 228 12Q173 33 132 74Q92 115 68 175Q45 236 45 315Q45 392 68 452Q91 513 131 554Q172 596 228 617Q284 639 350 639Q412 639 452 629Q492 619 526 602L504 530Q485 538 468 544Q452 551 435 555Q419 559 401 561Q384 563 362 563Q318 563 278 549Q239 536 209 506Q180 476 162 428Q145 381 145 314Q145 246 162 199Q179 152 207 123Q236 94 274 80Q312 67 355 67ZM716 340L716 0L628 0L628 710L716 710L716 410Q749 439 789 458Q829 477 877 477Q916 477 945 465Q974 454 992 433Q1011 413 1020 385Q1030 357 1030 324L1030 0L942 0L942 302Q942 356 920 380Q898 405 853 405Q819 405 784 388Q750 371 716 340ZM1252 0L1165 0L1165 470L1231 470L1246 376Q1263 421 1302 449Q1341 477 1392 477Q1418 477 1435 473Q1452 469 1466 463L1449 386Q1437 392 1422 396Q1408 400 1388 400Q1359 400 1334 390Q1310 380 1291 360Q1273 340 1262 310Q1252 281 1252 243L1252 0ZM1641 0L1553 0L1553 470L1641 470L1641 0ZM1597 591Q1574 591 1557 606Q1541 622 1541 645Q1541 668 1557 684Q1574 700 1597 700Q1619 700 1636 684Q1653 668 1653 645Q1653 622 1636 606Q1619 591 1597 591ZM2069 449L2049 382Q2016 398 1989 404Q1962 410 1935 410Q1887 410 1864 392Q1841 375 1841 346Q1841 325 1857 309Q1873 294 1924 279L1954 270Q2021 250 2055 218Q2090 187 2090 133Q2090 69 2042 30Q1995 -9 1910 -9Q1865 -9 1823 -1Q1782 7 1752 21L1773 90Q1802 76 1836 67Q1870 59 1905 59Q1950 59 1976 75Q2003 91 2003 128Q2003 160 1980 173Q1957 187 1914 200L1883 210Q1818 231 1786 262Q1755 294 1755 344Q1755 374 1768 399Q1781 424 1803 441Q1826 458 1857 467Q1888 477 1925 477Q1960 477 1997 470Q2035 464 2069 449ZM2439 470L2439 404L2301 404L2301 131Q2301 96 2318 84Q2336 72 2364 72Q2384 72 2408 76Q2432 81 2450 87L2464 20Q2444 12 2413 6Q2382 0 2348 0Q2278 0 2246 30Q2214 61 2214 119L2214 404L2144 404L2144 470L2214 470L2214 620L2301 620L2301 470L2439 470ZM2658 0L2570 0L2570 470L2658 470L2658 0ZM2614 591Q2591 591 2574 606Q2558 622 2558 645Q2558 668 2574 684Q2591 700 2614 700Q2636 700 2653 684Q2670 668 2670 645Q2670 622 2653 606Q2636 591 2614 591ZM2841 364L2807 428Q2831 440 2852 449Q2873 459 2894 465Q2915 471 2937 474Q2959 477 2985 477Q3024 477 3056 468Q3089 460 3112 440Q3136 420 3149 387Q3162 355 3162 306L3162 0L3089 0L3078 52L3076 52Q3045 19 3008 5Q2971 -9 2926 -9Q2892 -9 2863 0Q2835 10 2814 27Q2793 45 2781 70Q2770 95 2770 126Q2770 200 2828 238Q2887 277 2983 277L3073 277L3073 317Q3073 368 3047 386Q3021 405 2977 405Q2951 405 2917 396Q2884 388 2841 364ZM3074 121L3074 217L3000 215Q2925 213 2893 188Q2862 164 2862 129Q2862 108 2869 93Q2876 79 2887 71Q2899 63 2914 59Q2930 56 2947 56Q2980 56 3014 71Q3048 87 3074 121ZM3379 342L3379 0L3291 0L3291 470L3360 470L3373 405Q3408 440 3446 458Q3485 477 3535 477Q3607 477 3648 436Q3689 396 3689 324L3689 0L3601 0L3601 311Q3601 354 3578 379Q3556 405 3510 405Q3440 405 3379 342Z" fill="#ffffff" style=""></path></g></g></g></svg>